<svg xmlns="http://www.w3.org/2000/svg" width="375" viewBox="0 0 375 375" height="375" version="1.0"><path fill="#FF914C" d="M 102.515625 232.179688 C 105.53125 228.765625 107.90625 225.75 110.617188 223.070312 C 119.664062 214.175781 128.40625 204.917969 138.09375 196.753906 C 148.539062 187.949219 163.558594 190.324219 173.183594 200.53125 C 175.589844 203.058594 179.824219 203.851562 183.632812 205.617188 C 185.277344 209.699219 181.378906 211.496094 178.972656 213.78125 C 157.128906 234.523438 140.164062 259.015625 125.449219 285 C 119.816406 294.929688 116.039062 305.957031 111.773438 316.617188 C 108.421875 324.992188 107.996094 326.179688 98.859375 325.449219 C 82.5625 324.140625 68.367188 318.597656 58.101562 304.585938 C 40.222656 280.246094 20.9375 256.914062 7.535156 229.589844 C 5.375 225.140625 3.757812 220.421875 0.773438 213.109375 C 14.144531 215.515625 25.144531 215.425781 32.210938 226.054688 C 36.535156 232.574219 40.953125 239 46.921875 247.898438 C 48.445312 238.546875 49.390625 232.085938 50.546875 225.691406 C 59.289062 177.46875 78.691406 133.972656 115.09375 100.832031 C 148.207031 70.644531 187.105469 49.777344 233.738281 49.199219 C 272.914062 48.742188 306.542969 64.09375 335.9375 88.769531 C 347.695312 98.667969 357.65625 110.761719 368.101562 122.152344 C 370.816406 125.109375 372.308594 129.128906 374.347656 132.691406 C 373.554688 133.453125 372.765625 134.214844 371.972656 134.976562 C 367.160156 131.992188 362.164062 129.25 357.625 125.898438 C 354.792969 123.796875 352.597656 120.8125 350.222656 118.132812 C 319.761719 83.679688 281.289062 74.480469 237.699219 83.863281 C 204.40625 91.023438 176.898438 108.964844 153.78125 133.546875 C 129.351562 159.46875 112.777344 189.988281 102.847656 224.167969 C 102.390625 225.691406 102.027344 227.242188 101.78125 228.796875 C 101.722656 229.5 102.085938 230.257812 102.515625 232.179688 Z M 102.515625 232.179688"/></svg>